<?xml version="1.0" encoding="UTF-8"?>
<svg width="16px" height="16px" viewBox="0 0 16 16" version="1.1" xmlns="http://www.w3.org/2000/svg" xmlns:xlink="http://www.w3.org/1999/xlink">
    <title>编组 10</title>
    <g id="页面-1" stroke="none" stroke-width="1" fill="none" fill-rule="evenodd">
        <g id="画板" transform="translate(-766.000000, -3175.000000)">
            <g id="模块一备份-3" transform="translate(0.000000, 2720.000000)">
                <g id="编组-7备份" transform="translate(667.000000, 242.000000)">
                    <g id="编组-13备份" transform="translate(81.000000, 201.000000)">
                        <g id="编组-11" transform="translate(18.000000, 8.000000)">
                            <g id="编组-10" transform="translate(0.000000, 4.000000)">
                                <path d="M0,0 L16,0 L16,16 L0,16 L0,0 Z" id="download-(Background)"></path>
                                <g id="编组-26" transform="translate(1.250000, 0.750000)" fill="#003296" fill-rule="nonzero">
                                    <path d="M1.5,11.25 L1.5,13.026 L11.005,13.026 L11.0052685,11.25 L12.5052685,11.25 L12.5052685,13.7767863 C12.5052685,14.156482 12.2231146,14.4702772 11.857039,14.5199397 L11.7552685,14.5267863 L0.75,14.5267863 C0.370304234,14.5267863 0.0565090391,14.2446324 0.006846616,13.8785568 L0,13.7767863 L0,11.25 L1.5,11.25 Z M7,0 L6.99946065,8.975 L10.3807077,5.71055863 L11.4228267,6.78944137 L6.76582306,11.2877541 C6.4982199,11.5462385 6.0871502,11.5663093 5.79728347,11.3503123 L5.71422421,11.2784335 L1.21946065,6.78012074 L2.28053935,5.71987926 L5.49946065,8.942 L5.5,0 L7,0 Z" id="形状结合"></path>
                                </g>
                            </g>
                        </g>
                    </g>
                </g>
            </g>
        </g>
    </g>
</svg>