<?xml version="1.0" encoding="UTF-8"?>
<svg width="35px" height="40px" viewBox="0 0 35 40" version="1.1" xmlns="http://www.w3.org/2000/svg" xmlns:xlink="http://www.w3.org/1999/xlink">
    <title>编组 4</title>
    <g id="页面-1" stroke="none" stroke-width="1" fill="none" fill-rule="evenodd">
        <g id="画板" transform="translate(-60.000000, -16.000000)">
            <g id="编组" transform="translate(60.000000, 16.000000)">
                <polygon id="路径-10" fill="#7EAAFC" points="34.2857143 10.904853 25.7142857 14.7826087 25.7142857 25.2173913 17.1428571 29.2582756 17.1428571 40 34.2857143 32.173913"></polygon>
                <polygon id="路径-11" fill="#025BFF" points="25.7142857 25.2173913 17.1428571 21.3043478 17.1428571 10.904853 25.7142857 14.7826087"></polygon>
                <polygon id="路径-12" fill="#E0EBFF" points="34.2857143 10.904853 25.7142857 6.52173913 17.1428571 10.904853 25.7142857 14.7826087"></polygon>
                <polygon id="路径-13" fill="#025BFF" points="17.1428571 40 8.57142857 35.6521739 8.57142857 25.2173913 17.1428571 29.2582756"></polygon>
                <polygon id="路径-14" fill="#E0EBFF" points="8.57142857 25.2173913 17.1428571 21.3043478 25.7142857 25.2173913 17.1428571 29.2582756"></polygon>
                <polygon id="矩形" fill="#025BFF" points="1.21807326e-13 8.26086957 8.57142857 12.173913 8.57142857 33.4782609 0 29.1304348"></polygon>
                <polygon id="路径-8" fill="#E0EBFF" points="8.57142857 12.173913 25.7142857 3.91304348 17.1428571 -1.48733682e-15 1.82710989e-13 8.26086957"></polygon>
                <polygon id="路径-9" fill="#7EAAFC" points="8.57142857 12.173913 8.57142857 33.4782609 17.1428571 29.2582756 17.1428571 18.6956522 25.7142857 14.7826087 25.7142857 3.91304348"></polygon>
            </g>
        </g>
    </g>
</svg>